<svg version="1.1" xmlns="http://www.w3.org/2000/svg" xmlns:xlink="http://www.w3.org/1999/xlink" x="0px" y="0px" width="11.340439551665655" height="8.970172164504422" viewBox="0 0 69.4636 54.945" enable-background="new 0 0 69.4636 54.945" xml:space="preserve" data-external-asset-id="abstract-shape-3" id="symbols_0" fill="#000000">
<g id="Layer_3">
</g>
<g id="Layer_2_1_">
	<path opacity="0.8" enable-background="new    " d="M6.8418,54.945L4.4445,42.8525L9.6403,27.572l15.772-3.722l33.1104,20.586
		l-9.5012,10.509H6.8418z"></path>
	<path opacity="0.5" enable-background="new    " d="M69.4636,12.0114l-0.2879,16.3013L58.5228,44.4361L25.4124,23.85
		c0,0-0.1685-14.9372-0.1745-15.2596L69.4636,12.0114z"></path>
	<polygon opacity="0.7" enable-background="new    " points="25.2379,8.5904 25.4124,23.85 9.6403,27.572 9.6904,7.8707 	"></polygon>
	<polygon points="0.1724,1.3977 9.6904,7.8707 9.6904,27.572 4.4445,42.8525 0,28.131 	"></polygon>
	<path opacity="0.5" enable-background="new    " d="M23.696,0c0,0.2795,1.5419,8.5904,1.5419,8.5904L9.6904,7.8707l-9.518-6.473
		L23.696,0z"></path>
	<path opacity="0.3" enable-background="new    " d="M23.696,0l1.5419,8.5904l44.2257,3.421L23.696,0z"></path>
</g>
<g id="Layer_1">
</g>
</svg></svg>