<svg id="svg" version="1.1" xmlns="http://www.w3.org/2000/svg" xmlns:xlink="http://www.w3.org/1999/xlink" width="400" height="225" viewBox="0, 0, 400,225"><g id="svgg"><path id="path0" d="M142.281 88.705 C 141.645 89.371,137.479 93.356,132.434 98.125 C 131.646 98.870,130.372 100.089,129.603 100.833 C 128.833 101.578,127.267 103.078,126.121 104.167 C 124.975 105.255,122.414 107.693,120.431 109.583 C 118.448 111.474,116.309 113.498,115.679 114.081 C 114.372 115.289,114.378 115.461,115.773 116.667 C 116.207 117.042,117.316 118.063,118.237 118.935 C 123.093 123.532,127.357 127.557,128.746 128.854 C 129.606 129.656,130.356 130.359,130.415 130.417 C 131.546 131.526,140.360 139.828,142.051 141.376 C 143.681 142.868,143.612 142.858,144.875 141.779 C 145.489 141.255,146.558 140.382,147.251 139.840 C 149.410 138.149,151.745 136.299,152.370 135.783 C 153.116 135.168,153.062 135.073,150.738 132.917 C 149.812 132.057,148.204 130.557,147.164 129.583 C 146.124 128.609,144.767 127.340,144.147 126.762 C 143.528 126.185,141.427 124.220,139.479 122.395 C 137.531 120.571,135.379 118.559,134.697 117.924 C 132.441 115.828,132.292 115.660,132.292 115.235 C 132.292 115.002,132.424 114.737,132.585 114.646 C 132.747 114.554,134.599 112.833,136.700 110.822 C 138.801 108.810,141.208 106.514,142.049 105.718 C 142.889 104.922,144.061 103.812,144.653 103.252 C 145.245 102.691,147.169 100.863,148.929 99.189 C 150.688 97.515,152.212 96.115,152.314 96.076 C 153.174 95.755,152.834 95.428,145.938 89.958 C 145.135 89.321,144.254 88.602,143.979 88.359 C 143.309 87.767,143.145 87.801,142.281 88.705 M234.684 88.809 C 234.113 89.299,232.521 90.587,231.146 91.671 C 229.771 92.755,228.535 93.736,228.398 93.852 C 228.262 93.968,227.817 94.330,227.409 94.657 C 226.428 95.443,226.459 95.593,227.865 96.865 C 228.523 97.461,229.766 98.627,230.625 99.456 C 231.484 100.285,233.688 102.359,235.521 104.064 C 237.354 105.770,239.557 107.834,240.417 108.652 C 242.636 110.764,245.148 113.113,246.302 114.158 C 247.565 115.300,247.582 115.222,245.663 117.074 C 242.403 120.220,239.613 122.875,236.462 125.833 C 234.692 127.495,232.116 129.946,230.737 131.281 C 229.358 132.616,227.924 133.973,227.552 134.296 C 227.180 134.620,226.875 134.988,226.875 135.115 C 226.875 135.289,230.789 138.561,233.021 140.254 C 233.135 140.341,233.805 140.882,234.510 141.456 C 236.134 142.781,236.264 142.768,238.021 141.112 C 240.502 138.772,243.342 136.072,245.632 133.876 C 249.928 129.755,252.668 127.143,256.145 123.854 C 258.083 122.021,260.687 119.538,261.932 118.337 C 263.176 117.136,264.259 116.105,264.337 116.045 C 265.096 115.470,265.027 115.269,263.610 113.930 C 261.214 111.666,258.520 109.116,256.474 107.175 C 255.395 106.151,254.356 105.172,254.166 105.000 C 253.674 104.554,251.049 102.091,248.847 100.009 C 247.812 99.030,245.376 96.729,243.433 94.896 C 241.490 93.063,239.040 90.742,237.990 89.740 C 235.758 87.610,236.000 87.678,234.684 88.809 M205.417 96.140 C 200.294 97.271,195.677 105.137,194.897 114.063 C 194.792 115.266,194.682 115.594,194.264 115.938 C 193.985 116.167,193.515 117.010,193.218 117.813 C 192.083 120.883,189.455 124.079,186.393 126.111 C 184.373 127.452,184.403 127.761,185.958 121.667 C 186.148 120.922,186.469 119.516,186.672 118.542 C 187.237 115.827,187.497 114.627,187.913 112.813 C 188.123 111.896,188.404 110.443,188.536 109.583 C 188.668 108.724,188.903 107.365,189.059 106.563 C 189.909 102.192,189.930 100.239,189.139 99.128 C 187.429 96.727,181.270 95.724,180.225 97.677 C 180.098 97.915,180.000 99.255,179.999 100.768 C 179.998 103.086,179.886 103.972,179.148 107.500 C 178.681 109.734,178.215 111.962,178.113 112.451 C 178.011 112.940,177.842 113.502,177.736 113.701 C 177.631 113.900,177.171 115.188,176.713 116.563 C 176.256 117.938,175.741 119.344,175.569 119.688 C 175.397 120.031,174.971 120.922,174.623 121.667 C 172.362 126.500,170.324 127.215,169.327 123.523 C 168.598 120.824,168.970 116.955,170.840 107.813 C 172.171 101.300,172.225 100.740,171.629 99.586 C 170.493 97.390,165.928 95.925,163.448 96.962 C 162.491 97.361,162.370 97.677,162.204 100.208 C 162.125 101.411,161.840 103.427,161.571 104.688 C 161.034 107.206,160.344 111.831,160.008 115.164 C 158.973 125.427,161.677 130.104,168.646 130.104 C 172.302 130.104,173.661 129.344,175.900 126.047 C 176.367 125.360,176.345 125.602,175.707 128.146 C 175.067 130.695,175.288 130.344,174.040 130.797 C 170.491 132.085,165.580 135.711,163.810 138.349 C 161.631 141.597,160.991 143.385,160.982 146.250 C 160.965 151.480,165.817 155.762,171.059 155.141 C 175.528 154.612,179.483 147.463,183.167 133.257 C 183.570 131.700,183.728 131.376,184.167 131.203 C 184.694 130.994,184.792 130.945,186.407 130.087 C 188.743 128.845,192.586 125.343,194.297 122.898 L 195.112 121.733 195.606 123.210 C 196.946 127.222,200.208 129.683,205.729 130.848 C 208.620 131.457,213.373 130.392,215.700 128.613 C 215.976 128.402,216.409 128.089,216.662 127.917 C 217.914 127.066,221.250 121.956,221.250 120.890 C 221.250 120.784,221.484 120.120,221.771 119.415 C 222.695 117.140,222.294 116.251,220.204 115.944 L 219.271 115.807 218.890 116.810 C 217.372 120.800,216.377 122.589,214.711 124.323 C 214.133 124.924,213.580 125.417,213.483 125.417 C 213.385 125.417,213.007 125.643,212.642 125.920 C 211.303 126.937,208.752 127.112,207.389 126.280 C 204.967 124.803,204.105 117.179,205.665 111.042 C 205.884 110.182,206.145 109.104,206.245 108.646 C 207.416 103.291,211.377 98.460,212.622 100.868 C 213.341 102.258,212.521 104.862,211.016 105.970 C 210.056 106.676,210.063 107.062,211.042 107.552 C 215.228 109.645,217.854 102.223,214.343 98.224 C 212.562 96.196,208.967 95.357,205.417 96.140 M173.885 136.163 C 173.616 136.956,173.327 137.979,173.242 138.438 C 173.099 139.206,172.841 140.027,171.669 143.438 C 170.123 147.937,167.835 150.230,165.894 149.224 C 163.737 148.106,164.051 143.175,166.460 140.362 C 168.424 138.067,170.665 136.289,172.967 135.201 C 174.530 134.462,174.480 134.409,173.885 136.163 " stroke="none" fill="#f3dbca" fill-rule="evenodd"></path><path id="path1" d="M212.500 22.917 C 212.500 23.031,212.641 23.125,212.813 23.125 C 212.984 23.125,213.125 23.031,213.125 22.917 C 213.125 22.802,212.984 22.708,212.813 22.708 C 212.641 22.708,212.500 22.802,212.500 22.917 M186.146 23.737 C 185.458 23.942,184.380 24.389,183.750 24.731 C 183.120 25.073,181.995 25.683,181.250 26.086 C 179.118 27.239,172.186 31.189,169.938 32.531 C 168.816 33.202,167.858 33.750,167.809 33.750 C 167.761 33.750,166.945 34.208,165.996 34.767 C 165.047 35.327,163.943 35.970,163.542 36.196 C 163.141 36.422,161.594 37.310,160.104 38.169 C 158.615 39.028,155.802 40.649,153.854 41.771 C 151.906 42.893,149.963 44.032,149.535 44.302 C 149.108 44.571,148.711 44.792,148.653 44.792 C 148.594 44.792,147.538 45.384,146.305 46.109 C 142.496 48.346,138.685 50.559,137.813 51.041 C 137.354 51.295,136.216 51.961,135.284 52.522 C 134.351 53.083,133.535 53.542,133.470 53.542 C 133.405 53.542,132.293 54.180,130.999 54.960 C 129.705 55.740,128.505 56.443,128.333 56.521 C 128.161 56.600,127.880 56.756,127.708 56.869 C 127.352 57.102,124.574 58.714,123.021 59.588 C 112.887 65.293,111.381 66.505,109.384 70.569 C 107.781 73.832,107.906 70.619,107.705 113.646 C 107.590 138.109,107.598 152.720,107.724 153.646 C 108.378 158.425,111.123 162.423,115.706 165.273 C 116.478 165.753,117.361 166.309,117.669 166.508 C 117.977 166.707,118.369 166.937,118.541 167.019 C 118.807 167.146,122.400 169.219,123.333 169.785 C 123.505 169.889,124.677 170.557,125.938 171.269 C 127.198 171.981,128.745 172.865,129.375 173.232 C 130.005 173.600,131.130 174.225,131.875 174.621 C 134.197 175.858,136.768 177.370,136.840 177.541 C 136.878 177.631,137.674 178.131,138.611 178.652 C 139.547 179.173,140.453 179.687,140.625 179.793 C 141.179 180.135,144.859 182.212,150.417 185.320 C 153.017 186.774,160.767 191.173,164.948 193.568 C 166.122 194.241,167.122 194.792,167.170 194.792 C 167.218 194.792,167.945 195.198,168.785 195.694 C 169.625 196.191,170.875 196.909,171.563 197.291 C 172.250 197.673,173.094 198.145,173.438 198.342 C 175.910 199.755,176.600 200.144,176.875 200.279 C 177.047 200.364,177.376 200.547,177.605 200.685 C 177.835 200.824,178.679 201.310,179.480 201.765 C 180.282 202.221,181.313 202.808,181.771 203.071 C 186.284 205.655,190.956 205.943,195.152 203.895 C 196.402 203.285,198.820 201.956,199.840 201.319 C 200.267 201.052,200.658 200.833,200.708 200.833 C 200.758 200.833,201.512 200.411,202.385 199.896 C 203.257 199.380,204.013 198.958,204.065 198.958 C 204.117 198.958,204.772 198.583,205.521 198.125 C 206.270 197.667,206.931 197.292,206.991 197.292 C 207.051 197.292,207.354 197.116,207.665 196.902 C 207.975 196.688,209.729 195.666,211.563 194.632 C 213.396 193.597,215.974 192.120,217.292 191.349 C 218.609 190.579,220.344 189.579,221.146 189.129 C 221.948 188.678,222.885 188.142,223.229 187.937 C 223.573 187.731,224.839 187.003,226.042 186.317 C 228.092 185.149,234.233 181.603,235.840 180.660 C 236.237 180.427,236.891 180.051,237.292 179.826 C 237.693 179.600,238.769 178.984,239.682 178.458 C 240.596 177.931,241.469 177.500,241.622 177.500 C 241.898 177.500,242.602 177.133,245.260 175.602 C 248.988 173.455,249.752 173.025,252.917 171.292 C 253.661 170.884,254.858 170.192,255.577 169.755 C 256.295 169.317,256.925 168.958,256.977 168.958 C 257.029 168.958,257.785 168.536,258.657 168.021 C 259.529 167.505,260.270 167.083,260.303 167.083 C 260.444 167.083,264.966 164.475,265.732 163.952 C 268.931 161.767,271.590 157.369,272.278 153.125 C 272.519 151.635,272.540 118.516,272.317 89.896 L 272.188 73.229 271.583 71.771 C 270.028 68.019,267.454 65.329,262.649 62.435 C 261.757 61.898,260.999 61.458,260.964 61.458 C 260.929 61.458,259.188 60.474,257.093 59.271 C 254.999 58.068,253.257 57.083,253.222 57.083 C 253.188 57.083,252.446 56.661,251.574 56.146 C 250.702 55.630,249.945 55.208,249.894 55.208 C 249.842 55.208,249.186 54.833,248.438 54.375 C 247.689 53.917,247.018 53.542,246.946 53.542 C 246.875 53.542,246.364 53.263,245.810 52.922 C 244.771 52.283,233.042 45.634,229.271 43.547 C 228.698 43.229,226.321 41.880,223.989 40.547 C 221.657 39.215,219.719 38.125,219.683 38.125 C 219.612 38.125,216.546 36.366,216.042 36.035 C 215.870 35.923,215.589 35.767,215.417 35.688 C 215.245 35.610,214.677 35.296,214.156 34.990 C 213.634 34.684,212.790 34.201,212.281 33.917 C 211.771 33.632,209.479 32.339,207.188 31.044 C 204.896 29.749,202.693 28.507,202.292 28.283 C 201.433 27.804,199.420 26.652,198.922 26.354 C 194.142 23.496,189.885 22.624,186.146 23.737 M159.167 27.292 C 159.167 27.406,159.307 27.500,159.479 27.500 C 159.651 27.500,159.792 27.406,159.792 27.292 C 159.792 27.177,159.651 27.083,159.479 27.083 C 159.307 27.083,159.167 27.177,159.167 27.292 M222.401 28.117 C 222.224 28.402,222.381 28.617,222.689 28.511 C 222.815 28.468,222.831 28.321,222.728 28.155 C 222.597 27.945,222.513 27.935,222.401 28.117 M226.458 30.736 C 226.458 30.904,226.599 31.042,226.771 31.042 C 226.943 31.042,227.083 30.958,227.083 30.856 C 227.083 30.753,226.943 30.616,226.771 30.550 C 226.580 30.477,226.458 30.549,226.458 30.736 M230.972 33.056 C 230.742 33.286,230.815 33.542,231.111 33.542 C 231.264 33.542,231.389 33.401,231.389 33.229 C 231.389 32.900,231.205 32.823,230.972 33.056 M238.444 37.353 C 238.355 37.558,238.340 37.785,238.412 37.856 C 238.623 38.068,238.794 37.771,238.696 37.360 C 238.610 36.996,238.599 36.996,238.444 37.353 M140.903 37.598 C 140.903 37.773,141.036 37.917,141.198 37.917 C 141.360 37.917,141.456 37.805,141.411 37.669 C 141.285 37.292,140.903 37.238,140.903 37.598 M248.125 42.906 C 248.125 43.179,248.258 43.297,248.542 43.276 C 248.771 43.259,248.958 43.239,248.958 43.231 C 248.958 43.224,248.771 43.057,248.542 42.861 C 248.146 42.522,248.125 42.524,248.125 42.906 M130.625 43.646 C 130.413 43.902,130.427 43.958,130.704 43.958 C 130.890 43.958,131.042 43.818,131.042 43.646 C 131.042 43.474,131.006 43.333,130.963 43.333 C 130.920 43.333,130.768 43.474,130.625 43.646 M260.490 49.533 C 260.566 49.656,260.515 49.794,260.376 49.840 C 260.218 49.893,260.256 49.974,260.479 50.059 C 260.886 50.215,260.983 49.700,260.593 49.459 C 260.451 49.371,260.409 49.402,260.490 49.533 M144.255 87.969 C 144.583 88.227,145.196 88.719,145.618 89.063 C 146.735 89.973,147.731 90.770,150.417 92.903 C 153.913 95.679,153.933 95.136,150.204 98.646 C 149.230 99.563,147.256 101.438,145.818 102.813 C 142.130 106.338,136.504 111.678,135.857 112.267 C 135.558 112.541,134.714 113.334,133.982 114.031 L 132.651 115.298 135.024 117.560 C 136.328 118.805,137.865 120.252,138.438 120.776 C 139.010 121.301,140.698 122.875,142.188 124.275 C 143.677 125.675,145.236 127.137,145.653 127.524 C 153.525 134.853,153.334 134.662,153.325 135.225 C 153.319 135.596,152.982 135.976,152.045 136.667 C 151.346 137.182,150.623 137.751,150.439 137.930 C 150.255 138.110,149.495 138.719,148.750 139.285 C 148.005 139.850,147.349 140.363,147.292 140.424 C 147.234 140.485,146.719 140.902,146.146 141.350 C 145.573 141.798,144.815 142.431,144.463 142.756 C 143.571 143.576,143.518 143.543,139.265 139.479 C 137.227 137.531,134.661 135.094,133.563 134.063 C 132.465 133.031,130.918 131.578,130.125 130.833 C 129.332 130.089,128.148 128.964,127.494 128.333 C 126.839 127.703,125.800 126.728,125.183 126.166 C 120.536 121.931,113.958 115.554,113.958 115.284 C 113.958 115.068,114.795 114.247,121.044 108.333 C 122.921 106.557,124.842 104.729,125.315 104.271 C 127.269 102.373,130.728 99.075,133.944 96.041 C 135.826 94.266,137.754 92.438,138.227 91.979 C 143.395 86.975,143.176 87.120,144.255 87.969 M238.143 89.225 C 239.126 90.167,241.329 92.250,243.037 93.854 C 245.909 96.550,248.066 98.593,252.083 102.418 C 252.943 103.237,254.133 104.349,254.728 104.890 C 256.064 106.105,256.953 106.942,261.042 110.842 C 262.819 112.536,264.530 114.124,264.844 114.372 C 265.677 115.027,265.580 115.628,264.486 116.595 C 263.974 117.048,262.636 118.303,261.513 119.386 C 260.390 120.468,257.695 123.042,255.525 125.104 C 253.355 127.167,250.825 129.572,249.904 130.450 C 248.983 131.328,247.573 132.671,246.771 133.435 C 245.182 134.948,238.204 141.628,237.246 142.552 C 236.525 143.247,235.856 143.281,235.174 142.656 C 234.755 142.272,233.412 141.163,232.396 140.363 C 232.281 140.273,231.593 139.730,230.866 139.157 C 230.139 138.585,229.425 138.001,229.279 137.860 C 229.133 137.719,228.442 137.182,227.743 136.667 C 225.611 135.093,225.059 135.958,232.917 128.551 C 235.036 126.552,237.160 124.537,237.637 124.073 C 239.482 122.274,244.727 117.322,245.477 116.671 C 246.786 115.532,246.828 115.293,245.872 114.410 C 245.417 113.990,244.443 113.083,243.709 112.396 C 242.974 111.708,241.068 109.927,239.472 108.438 C 237.877 106.948,236.274 105.448,235.910 105.104 C 235.323 104.548,233.820 103.137,228.369 98.021 C 226.281 96.061,226.042 95.800,226.042 95.482 C 226.042 95.142,226.698 94.522,228.542 93.119 C 229.057 92.727,229.526 92.355,229.583 92.292 C 229.641 92.228,230.109 91.852,230.625 91.456 C 231.141 91.060,232.172 90.235,232.917 89.624 C 233.661 89.013,234.549 88.285,234.889 88.006 C 235.837 87.229,236.200 87.364,238.143 89.225 M210.680 96.135 C 215.898 97.382,218.032 104.709,213.975 107.443 C 212.101 108.706,209.236 107.280,211.016 105.970 C 212.521 104.862,213.341 102.258,212.622 100.868 C 211.380 98.465,207.413 103.303,206.245 108.646 C 206.145 109.104,205.884 110.182,205.665 111.042 C 204.105 117.179,204.967 124.803,207.389 126.280 C 208.752 127.112,211.303 126.937,212.642 125.920 C 213.007 125.643,213.385 125.417,213.483 125.417 C 213.580 125.417,214.133 124.924,214.711 124.323 C 216.377 122.589,217.372 120.800,218.890 116.810 L 219.271 115.807 220.204 115.944 C 222.294 116.251,222.695 117.140,221.771 119.415 C 221.484 120.120,221.250 120.784,221.250 120.890 C 221.250 121.956,217.914 127.066,216.662 127.917 C 216.409 128.089,215.976 128.402,215.700 128.613 C 211.743 131.639,204.476 131.730,200.152 128.810 C 197.726 127.171,196.377 125.509,195.607 123.210 L 195.112 121.733 194.297 122.898 C 192.586 125.343,188.743 128.845,186.407 130.087 C 184.792 130.945,184.694 130.994,184.167 131.203 C 183.728 131.376,183.570 131.700,183.167 133.257 C 178.260 152.181,173.110 158.223,165.531 153.946 C 159.306 150.433,159.435 142.223,165.812 136.088 C 167.042 134.904,167.915 134.230,170.076 132.796 C 171.026 132.165,173.082 131.133,174.191 130.730 L 175.153 130.381 175.702 128.159 C 176.346 125.549,176.364 125.365,175.900 126.047 C 173.661 129.344,172.302 130.104,168.646 130.104 C 159.960 130.104,157.777 122.267,161.566 104.688 C 161.838 103.427,162.125 101.411,162.204 100.208 C 162.408 97.089,162.800 96.667,165.492 96.667 C 169.328 96.667,172.388 98.958,172.005 101.542 C 171.826 102.749,171.338 105.376,170.840 107.813 C 168.970 116.955,168.598 120.824,169.327 123.523 C 170.324 127.215,172.353 126.504,174.625 121.667 C 174.975 120.922,175.438 119.938,175.653 119.479 C 177.721 115.076,180.000 105.247,180.000 100.732 C 180.000 97.155,180.377 96.667,183.140 96.667 C 186.362 96.667,189.183 98.229,189.704 100.302 C 189.861 100.928,189.530 104.142,189.059 106.563 C 188.903 107.365,188.670 108.724,188.541 109.583 C 188.411 110.443,188.131 111.896,187.919 112.813 C 187.707 113.729,187.423 114.995,187.289 115.625 C 186.552 119.084,186.028 121.448,185.833 122.188 C 184.428 127.512,184.417 127.422,186.326 126.156 C 189.438 124.089,192.079 120.893,193.218 117.813 C 193.515 117.010,193.985 116.167,194.264 115.938 C 194.682 115.594,194.792 115.266,194.897 114.063 C 195.537 106.733,199.388 98.894,203.343 96.868 C 205.228 95.903,208.388 95.587,210.680 96.135 M172.799 135.283 C 172.004 135.664,171.225 136.132,171.068 136.321 C 170.911 136.511,170.687 136.667,170.570 136.667 C 170.081 136.667,167.364 139.184,166.354 140.572 C 163.927 143.911,163.740 148.214,165.975 149.275 C 167.880 150.179,170.153 147.849,171.669 143.438 C 172.841 140.027,173.099 139.206,173.242 138.438 C 173.327 137.979,173.616 136.956,173.885 136.163 C 174.485 134.395,174.546 134.446,172.799 135.283 M115.694 176.959 C 115.694 177.120,115.819 177.204,115.972 177.145 C 116.125 177.087,116.250 176.955,116.250 176.853 C 116.250 176.750,116.125 176.667,115.972 176.667 C 115.819 176.667,115.694 176.798,115.694 176.959 M117.645 177.842 C 117.478 178.008,117.666 178.333,117.929 178.333 C 118.037 178.333,118.125 178.193,118.125 178.021 C 118.125 177.699,117.879 177.607,117.645 177.842 M121.875 180.521 C 121.875 180.693,121.969 180.833,122.083 180.833 C 122.198 180.833,122.292 180.693,122.292 180.521 C 122.292 180.349,122.198 180.208,122.083 180.208 C 121.969 180.208,121.875 180.349,121.875 180.521 M124.792 182.162 C 124.792 182.205,124.932 182.357,125.104 182.500 C 125.360 182.712,125.417 182.698,125.417 182.421 C 125.417 182.235,125.276 182.083,125.104 182.083 C 124.932 182.083,124.792 182.119,124.792 182.162 M130.556 185.347 C 130.303 185.600,130.412 185.822,130.729 185.700 C 130.901 185.634,131.042 185.497,131.042 185.394 C 131.042 185.176,130.755 185.148,130.556 185.347 M147.708 195.313 C 147.708 195.484,147.792 195.625,147.894 195.625 C 147.997 195.625,148.134 195.484,148.200 195.313 C 148.273 195.122,148.201 195.000,148.014 195.000 C 147.846 195.000,147.708 195.141,147.708 195.313 M152.083 197.696 C 152.083 198.045,152.453 198.132,152.576 197.811 C 152.648 197.622,152.575 197.500,152.389 197.500 C 152.221 197.500,152.083 197.588,152.083 197.696 M156.302 200.259 C 156.336 200.363,156.454 200.448,156.563 200.448 C 156.671 200.448,156.789 200.363,156.823 200.259 C 156.858 200.155,156.741 200.069,156.563 200.069 C 156.384 200.069,156.267 200.155,156.302 200.259 M219.375 201.342 C 219.375 201.507,219.483 201.709,219.616 201.791 C 219.765 201.883,219.799 201.848,219.707 201.699 C 219.626 201.567,219.664 201.458,219.792 201.458 C 219.920 201.458,219.967 201.365,219.896 201.250 C 219.704 200.940,219.375 200.998,219.375 201.342 M166.111 205.729 C 166.111 205.901,166.179 206.042,166.262 206.042 C 166.346 206.042,166.468 205.901,166.534 205.729 C 166.602 205.550,166.538 205.417,166.382 205.417 C 166.233 205.417,166.111 205.557,166.111 205.729 " stroke="none" fill="#e38b4b" fill-rule="evenodd"></path><path id="path2" d="M186.042 13.532 C 186.042 13.641,185.409 13.759,184.635 13.793 C 183.647 13.836,183.245 13.931,183.281 14.115 C 183.316 14.288,183.056 14.375,182.500 14.375 C 182.042 14.375,181.667 14.469,181.667 14.583 C 181.667 14.698,181.342 14.792,180.945 14.792 C 180.436 14.792,180.157 14.915,180.000 15.208 C 179.877 15.438,179.600 15.625,179.385 15.625 C 178.695 15.625,178.257 15.865,178.576 16.067 C 178.757 16.182,178.584 16.245,178.083 16.247 C 177.659 16.249,177.237 16.367,177.146 16.510 C 176.929 16.849,176.132 17.292,175.739 17.292 C 175.570 17.292,175.331 17.479,175.208 17.708 C 175.074 17.959,174.772 18.125,174.450 18.125 C 174.059 18.125,173.946 18.210,174.034 18.438 C 174.113 18.645,174.026 18.750,173.775 18.750 C 173.281 18.750,172.083 19.351,172.083 19.599 C 172.083 19.705,171.843 19.792,171.548 19.792 C 171.108 19.792,171.037 19.866,171.146 20.208 C 171.255 20.551,171.183 20.625,170.743 20.625 C 170.407 20.625,170.208 20.741,170.208 20.938 C 170.208 21.109,170.109 21.250,169.988 21.250 C 169.866 21.250,169.821 21.163,169.887 21.056 C 170.174 20.592,169.595 20.680,169.289 21.148 C 169.052 21.508,168.760 21.667,168.329 21.667 C 167.916 21.667,167.708 21.771,167.708 21.979 C 167.708 22.151,167.615 22.303,167.500 22.318 C 167.385 22.332,167.198 22.367,167.083 22.396 C 166.969 22.424,166.758 22.463,166.615 22.481 C 166.455 22.501,166.511 22.632,166.759 22.819 C 167.141 23.109,167.127 23.125,166.498 23.125 C 166.133 23.125,165.833 23.219,165.833 23.333 C 165.833 23.448,165.552 23.542,165.208 23.542 C 164.579 23.542,164.360 23.834,164.844 24.029 C 164.987 24.086,164.758 24.141,164.335 24.150 C 163.564 24.167,162.978 24.570,163.686 24.598 C 164.020 24.611,164.015 24.631,163.646 24.777 C 163.417 24.868,163.112 24.898,162.969 24.845 C 162.826 24.791,162.708 24.889,162.708 25.062 C 162.708 25.278,162.573 25.342,162.279 25.265 C 161.964 25.183,161.820 25.271,161.734 25.597 C 161.644 25.944,161.458 26.042,160.891 26.042 C 160.330 26.042,160.191 26.113,160.284 26.354 C 160.364 26.563,160.268 26.675,159.993 26.693 C 159.322 26.735,159.209 26.763,159.045 26.927 C 158.959 27.013,159.092 27.083,159.340 27.083 C 159.589 27.083,159.792 27.176,159.792 27.289 C 159.792 27.403,159.581 27.487,159.323 27.478 C 158.862 27.460,158.261 27.571,157.494 27.814 C 157.262 27.888,157.151 28.060,157.220 28.240 C 157.306 28.463,157.170 28.542,156.701 28.542 C 155.986 28.542,155.634 28.876,156.195 29.023 C 156.397 29.075,156.211 29.129,155.781 29.142 C 155.352 29.156,155.000 29.260,155.000 29.375 C 155.000 29.490,154.819 29.583,154.598 29.583 C 154.377 29.583,154.073 29.702,153.921 29.847 C 153.770 29.993,153.411 30.221,153.125 30.354 C 152.839 30.488,152.721 30.603,152.865 30.611 C 153.430 30.642,153.085 31.042,152.493 31.042 C 152.124 31.042,151.812 31.171,151.742 31.354 C 151.676 31.526,151.486 31.667,151.320 31.667 C 151.153 31.667,151.075 31.760,151.146 31.875 C 151.223 32.001,150.944 32.083,150.441 32.083 C 149.627 32.083,148.982 32.479,149.727 32.522 C 149.935 32.533,149.747 32.638,149.310 32.754 C 148.767 32.898,148.550 33.056,148.626 33.253 C 148.705 33.459,148.560 33.542,148.118 33.542 C 147.778 33.542,147.500 33.635,147.500 33.750 C 147.500 33.865,147.219 33.958,146.875 33.958 C 146.458 33.958,146.250 34.063,146.250 34.271 C 146.250 34.448,146.063 34.583,145.819 34.583 C 145.493 34.583,145.419 34.678,145.513 34.974 C 145.612 35.287,145.530 35.365,145.100 35.365 C 144.805 35.365,144.430 35.540,144.267 35.755 C 144.105 35.970,143.969 36.065,143.965 35.966 C 143.961 35.867,143.727 35.937,143.444 36.122 C 143.162 36.307,142.717 36.499,142.455 36.547 C 141.741 36.680,141.739 36.682,142.188 36.875 C 142.517 37.017,142.432 37.057,141.781 37.069 C 141.141 37.080,141.014 37.139,141.208 37.333 C 141.623 37.748,141.503 37.857,140.469 37.997 C 139.207 38.169,138.716 38.451,139.167 38.747 C 139.408 38.905,139.324 38.959,138.802 38.981 C 138.174 39.008,137.960 39.039,137.552 39.161 C 137.466 39.187,137.630 39.283,137.917 39.375 C 138.413 39.534,137.718 39.716,137.031 39.608 C 136.945 39.594,136.875 39.721,136.875 39.889 C 136.875 40.066,136.752 40.148,136.584 40.083 C 136.423 40.022,136.229 40.073,136.153 40.198 C 136.076 40.322,135.923 40.368,135.814 40.300 C 135.704 40.233,135.640 40.297,135.672 40.444 C 135.703 40.590,135.589 40.723,135.417 40.740 C 134.672 40.811,134.583 40.845,134.583 41.054 C 134.583 41.175,134.677 41.217,134.792 41.146 C 134.906 41.075,135.000 41.110,135.000 41.224 C 135.000 41.338,134.742 41.460,134.427 41.497 C 134.112 41.533,133.854 41.672,133.854 41.806 C 133.854 42.230,133.542 42.379,133.525 41.962 C 133.516 41.742,133.462 41.679,133.404 41.823 C 133.346 41.966,133.166 42.083,133.003 42.083 C 132.841 42.083,132.708 42.177,132.708 42.292 C 132.708 42.406,132.427 42.500,132.083 42.500 C 131.597 42.500,131.458 42.593,131.458 42.917 C 131.458 43.146,131.365 43.333,131.250 43.333 C 131.135 43.333,131.042 43.474,131.042 43.646 C 131.042 43.864,130.822 43.958,130.313 43.958 C 129.911 43.958,129.583 44.046,129.583 44.153 C 129.583 44.260,129.326 44.377,129.010 44.413 C 128.695 44.450,128.465 44.573,128.498 44.688 C 128.531 44.802,128.250 44.943,127.873 45.000 C 127.452 45.064,127.188 45.224,127.188 45.414 C 127.188 45.584,127.000 45.757,126.771 45.799 C 126.542 45.840,126.260 45.972,126.146 46.092 C 126.005 46.241,126.017 46.267,126.184 46.173 C 126.319 46.097,126.488 46.130,126.560 46.247 C 126.638 46.372,126.438 46.458,126.071 46.458 C 125.730 46.458,125.420 46.549,125.382 46.661 C 125.344 46.772,125.078 46.902,124.792 46.950 C 124.505 46.997,124.294 47.141,124.323 47.268 C 124.353 47.404,124.077 47.500,123.658 47.500 C 123.264 47.500,122.883 47.594,122.813 47.708 C 122.742 47.823,122.835 47.917,123.021 47.917 C 123.206 47.917,123.300 48.010,123.229 48.125 C 123.158 48.240,122.918 48.333,122.696 48.333 C 122.474 48.333,122.292 48.426,122.292 48.539 C 122.292 48.652,122.128 48.731,121.927 48.715 C 121.173 48.651,120.833 48.760,120.833 49.063 C 120.833 49.234,120.651 49.375,120.429 49.375 C 120.207 49.375,119.958 49.483,119.876 49.616 C 119.787 49.759,119.818 49.800,119.953 49.716 C 120.078 49.639,120.238 49.672,120.310 49.788 C 120.388 49.914,120.183 50.000,119.804 50.000 C 119.435 50.000,119.165 50.110,119.163 50.260 C 119.161 50.440,119.113 50.450,119.007 50.292 C 118.901 50.134,118.661 50.182,118.229 50.447 C 117.885 50.658,117.721 50.832,117.865 50.832 C 118.501 50.835,118.047 51.170,117.381 51.189 C 116.514 51.213,116.240 51.401,116.673 51.675 C 116.899 51.818,116.805 51.869,116.312 51.872 C 115.930 51.874,115.569 52.012,115.465 52.198 C 115.366 52.375,115.082 52.535,114.835 52.554 C 114.588 52.573,114.340 52.707,114.284 52.853 C 114.228 52.999,114.044 53.065,113.875 53.000 C 113.705 52.935,113.402 53.076,113.196 53.316 C 112.991 53.555,112.657 53.750,112.454 53.750 C 111.976 53.750,111.972 54.107,112.448 54.231 C 112.648 54.284,112.508 54.338,112.135 54.351 C 111.763 54.364,111.458 54.469,111.458 54.583 C 111.458 54.698,111.221 54.792,110.931 54.792 C 110.641 54.792,110.354 54.922,110.293 55.081 C 110.232 55.240,109.883 55.436,109.518 55.517 C 109.153 55.598,108.971 55.710,109.115 55.766 C 109.569 55.944,109.396 56.198,108.818 56.198 C 108.458 56.198,108.122 56.390,107.864 56.745 C 107.645 57.046,107.332 57.292,107.170 57.292 C 107.008 57.292,106.875 57.432,106.875 57.604 C 106.875 57.782,106.688 57.917,106.439 57.917 C 106.178 57.917,105.959 58.084,105.894 58.333 C 105.834 58.563,105.674 58.750,105.539 58.750 C 105.404 58.750,105.086 59.008,104.833 59.323 C 103.536 60.939,103.333 61.224,103.333 61.436 C 103.333 61.563,103.184 61.667,103.001 61.667 C 102.819 61.667,102.620 61.854,102.560 62.083 C 102.500 62.313,102.322 62.500,102.163 62.500 C 101.999 62.500,101.875 62.712,101.875 62.995 C 101.875 63.268,101.726 63.614,101.545 63.765 C 101.363 63.916,101.074 64.389,100.904 64.816 C 100.733 65.243,100.459 65.644,100.296 65.707 C 100.133 65.769,100.000 66.094,100.000 66.430 C 100.000 66.779,99.867 67.090,99.688 67.159 C 99.505 67.229,99.375 67.541,99.375 67.910 C 99.375 68.257,99.281 68.542,99.167 68.542 C 99.052 68.542,98.958 69.007,98.958 69.577 C 98.958 70.398,98.896 70.588,98.655 70.495 C 98.048 70.263,98.021 72.166,98.021 114.375 C 98.021 156.643,98.061 159.444,98.661 158.946 C 98.911 158.738,98.958 158.845,98.958 159.620 C 98.958 160.127,99.044 160.631,99.149 160.740 C 99.254 160.848,99.373 161.172,99.414 161.458 C 99.455 161.745,99.604 161.956,99.745 161.927 C 99.890 161.897,100.000 162.092,100.000 162.379 C 100.000 163.064,100.212 163.564,100.441 163.422 C 100.545 163.358,100.685 163.581,100.752 163.917 C 100.819 164.253,101.099 164.770,101.375 165.067 C 101.650 165.364,101.875 165.752,101.875 165.928 C 101.875 166.105,102.016 166.250,102.188 166.250 C 102.382 166.250,102.500 166.447,102.500 166.771 C 102.500 167.153,102.611 167.292,102.917 167.292 C 103.146 167.292,103.333 167.415,103.333 167.567 C 103.333 167.917,104.559 169.288,104.811 169.219 C 104.915 169.190,105.000 169.307,105.000 169.479 C 105.000 169.651,105.141 169.792,105.313 169.792 C 105.484 169.792,105.625 169.884,105.625 169.996 C 105.625 170.478,107.020 171.647,107.293 171.394 C 107.501 171.201,107.528 171.204,107.414 171.406 C 107.313 171.586,107.448 171.673,107.852 171.687 L 108.438 171.708 107.917 171.872 C 107.402 172.034,107.404 172.038,108.076 172.190 C 108.540 172.296,108.739 172.452,108.701 172.683 C 108.666 172.897,108.818 173.045,109.115 173.087 C 109.372 173.124,109.583 173.241,109.583 173.348 C 109.583 173.454,109.823 173.542,110.116 173.542 C 110.410 173.542,110.598 173.626,110.534 173.728 C 110.403 173.941,110.886 174.167,111.475 174.167 C 111.695 174.167,111.875 174.307,111.875 174.479 C 111.875 174.675,112.073 174.792,112.405 174.792 C 112.794 174.792,112.919 174.889,112.874 175.156 C 112.837 175.376,112.926 175.497,113.099 175.460 C 113.257 175.427,113.548 175.546,113.746 175.725 C 113.944 175.905,114.261 175.993,114.449 175.920 C 114.640 175.847,114.792 175.891,114.792 176.019 C 114.792 176.146,114.692 176.250,114.571 176.250 C 114.450 176.250,114.408 176.344,114.479 176.458 C 114.550 176.573,114.977 176.667,115.429 176.667 C 115.890 176.667,116.250 176.768,116.250 176.897 C 116.250 177.024,116.105 177.072,115.927 177.004 C 115.749 176.936,115.656 176.965,115.721 177.070 C 115.785 177.174,116.118 177.321,116.461 177.396 C 116.803 177.472,117.083 177.630,117.083 177.747 C 117.083 177.872,117.301 177.907,117.604 177.831 C 118.038 177.722,118.125 177.775,118.125 178.145 C 118.125 178.488,118.221 178.565,118.541 178.481 C 118.771 178.421,119.010 178.457,119.075 178.561 C 119.139 178.665,119.040 178.750,118.854 178.750 C 118.669 178.750,118.575 178.844,118.646 178.958 C 118.717 179.073,119.121 179.168,119.544 179.170 C 120.006 179.172,120.208 179.239,120.051 179.339 C 119.716 179.552,121.039 180.208,121.802 180.208 C 122.238 180.208,122.319 180.288,122.231 180.625 C 122.145 180.956,122.225 181.042,122.624 181.042 C 122.930 181.042,123.125 181.163,123.125 181.354 C 123.125 181.549,123.322 181.667,123.646 181.667 C 123.932 181.667,124.167 181.760,124.167 181.875 C 124.167 181.990,124.448 182.083,124.792 182.083 C 125.208 182.083,125.417 182.188,125.417 182.396 C 125.417 182.568,125.561 182.708,125.738 182.708 C 125.925 182.708,126.034 182.855,125.999 183.059 C 125.952 183.328,126.130 183.429,126.770 183.494 C 127.526 183.572,127.795 183.738,127.970 184.232 C 128.003 184.326,128.440 184.457,128.942 184.524 C 129.752 184.633,129.813 184.677,129.486 184.916 C 129.078 185.215,129.051 185.206,130.469 185.239 C 130.983 185.251,131.336 185.625,130.833 185.625 C 130.719 185.625,130.625 185.719,130.625 185.833 C 130.625 185.948,130.959 186.042,131.366 186.042 C 131.808 186.042,132.056 186.126,131.979 186.250 C 131.906 186.368,132.081 186.458,132.384 186.458 C 132.694 186.458,132.895 186.565,132.865 186.714 C 132.836 186.854,133.018 187.001,133.270 187.039 C 133.543 187.081,133.685 187.218,133.623 187.380 C 133.552 187.566,133.802 187.697,134.412 187.794 C 134.980 187.885,135.207 187.997,135.036 188.102 C 134.783 188.259,135.859 188.770,136.979 189.024 C 137.334 189.104,137.340 189.122,137.019 189.142 C 136.278 189.190,136.916 189.584,137.773 189.608 C 138.253 189.621,138.482 189.675,138.281 189.727 C 137.472 189.938,138.853 190.625,140.089 190.625 C 140.370 190.625,140.662 190.725,140.738 190.847 C 140.814 190.971,140.748 191.040,140.588 191.004 C 140.430 190.967,140.280 191.031,140.254 191.146 C 140.206 191.363,140.257 191.379,141.198 191.449 C 141.513 191.472,141.654 191.539,141.510 191.596 C 140.992 191.805,141.267 192.083,141.991 192.083 C 142.433 192.083,142.681 192.168,142.604 192.292 C 142.533 192.406,142.668 192.500,142.904 192.500 C 143.140 192.500,143.310 192.613,143.281 192.752 C 143.233 192.984,143.738 193.131,144.635 193.145 C 144.836 193.148,145.000 193.239,145.000 193.346 C 145.000 193.454,144.930 193.518,144.844 193.490 C 144.758 193.461,144.661 193.531,144.629 193.646 C 144.596 193.760,144.924 193.911,145.358 193.981 C 145.791 194.051,146.013 194.121,145.851 194.137 C 145.148 194.208,146.977 194.991,147.858 194.997 C 148.169 194.999,148.283 195.096,148.208 195.294 C 148.140 195.470,148.266 195.642,148.522 195.723 C 148.757 195.798,148.928 195.970,148.902 196.106 C 148.875 196.247,149.148 196.382,149.535 196.420 C 149.910 196.456,150.162 196.573,150.096 196.680 C 150.030 196.787,150.218 196.875,150.515 196.875 C 150.812 196.875,151.109 197.016,151.175 197.188 C 151.248 197.378,151.563 197.500,151.982 197.500 C 152.567 197.500,152.653 197.562,152.560 197.917 C 152.472 198.255,152.554 198.333,152.997 198.333 C 153.322 198.333,153.521 198.438,153.490 198.594 C 153.458 198.752,153.718 198.881,154.153 198.922 C 154.677 198.972,154.788 199.041,154.570 199.180 C 154.356 199.315,154.478 199.374,155.000 199.386 C 155.556 199.400,155.634 199.442,155.326 199.562 C 154.804 199.767,155.143 199.968,156.117 200.034 C 156.615 200.068,156.853 200.174,156.791 200.336 C 156.670 200.650,157.791 201.140,158.854 201.237 C 158.969 201.248,158.928 201.342,158.764 201.446 C 158.536 201.590,158.636 201.684,159.180 201.840 C 159.574 201.953,159.773 202.054,159.623 202.065 C 159.082 202.102,159.623 202.500,160.214 202.500 C 160.667 202.500,160.790 202.579,160.700 202.813 C 160.620 203.023,160.710 203.125,160.978 203.125 C 161.196 203.125,161.464 203.211,161.573 203.316 C 161.682 203.421,162.005 203.538,162.292 203.576 C 162.585 203.615,162.813 203.782,162.813 203.958 C 162.813 204.263,162.889 204.295,163.743 204.349 C 163.980 204.364,164.111 204.485,164.053 204.636 C 163.943 204.924,165.267 205.417,166.150 205.417 C 166.617 205.417,166.654 205.467,166.458 205.833 C 166.263 206.199,166.300 206.250,166.764 206.250 C 167.075 206.250,167.270 206.357,167.240 206.510 C 167.208 206.666,167.459 206.797,167.865 206.836 C 168.237 206.872,168.542 206.989,168.542 207.097 C 168.542 207.204,168.799 207.293,169.115 207.295 C 169.558 207.297,169.617 207.343,169.375 207.497 C 169.130 207.653,169.208 207.725,169.740 207.832 C 170.230 207.931,170.417 208.083,170.417 208.382 C 170.417 208.659,170.517 208.756,170.723 208.677 C 170.892 208.612,171.150 208.676,171.296 208.819 C 171.876 209.385,172.616 209.792,173.067 209.792 C 173.336 209.792,173.519 209.905,173.490 210.052 C 173.460 210.199,173.688 210.341,174.010 210.378 C 174.326 210.415,174.583 210.561,174.583 210.703 C 174.583 210.845,174.965 211.130,175.432 211.336 C 175.898 211.542,176.330 211.841,176.391 212.001 C 176.453 212.161,176.774 212.292,177.106 212.292 C 177.502 212.292,177.708 212.398,177.708 212.604 C 177.708 212.790,177.900 212.917,178.183 212.917 C 178.444 212.917,178.818 213.104,179.014 213.333 C 179.221 213.575,179.629 213.750,179.986 213.750 C 180.324 213.750,180.658 213.844,180.729 213.958 C 180.800 214.073,181.181 214.167,181.575 214.167 C 182.037 214.167,182.273 214.259,182.240 214.427 C 182.203 214.608,182.584 214.706,183.490 214.750 C 184.206 214.784,184.792 214.901,184.792 215.010 C 184.792 215.273,192.768 215.274,193.031 215.011 C 193.140 214.902,193.816 214.785,194.533 214.751 C 195.271 214.715,195.814 214.597,195.783 214.479 C 195.754 214.365,196.104 214.209,196.563 214.132 C 198.127 213.873,199.030 213.569,199.213 213.243 C 199.314 213.064,199.571 212.917,199.785 212.917 C 200.472 212.917,200.910 212.676,200.590 212.474 C 200.404 212.356,200.528 212.297,200.964 212.295 C 201.322 212.293,201.732 212.151,201.875 211.979 C 202.018 211.807,202.253 211.667,202.399 211.667 C 202.545 211.667,202.720 211.520,202.789 211.341 C 202.857 211.162,203.000 211.068,203.105 211.133 C 203.397 211.314,203.958 211.033,203.958 210.707 C 203.958 210.521,204.191 210.417,204.606 210.417 C 205.095 210.417,205.224 210.341,205.133 210.104 C 205.046 209.878,205.156 209.792,205.527 209.792 C 205.810 209.792,206.042 209.698,206.042 209.583 C 206.042 209.469,206.232 209.375,206.465 209.375 C 206.698 209.375,206.942 209.234,207.008 209.062 C 207.074 208.891,207.305 208.750,207.522 208.750 C 207.876 208.750,208.013 208.528,207.941 208.073 C 207.928 207.987,208.151 207.917,208.437 207.917 C 208.762 207.917,208.958 207.799,208.958 207.604 C 208.958 207.432,209.049 207.292,209.160 207.292 C 209.271 207.292,209.307 207.456,209.239 207.656 C 209.164 207.880,209.322 207.794,209.646 207.434 C 209.999 207.043,210.393 206.842,210.827 206.830 C 211.283 206.817,211.446 206.727,211.371 206.531 C 211.299 206.343,211.430 206.250,211.765 206.250 C 212.366 206.250,212.669 205.860,212.266 205.605 C 212.068 205.480,212.189 205.422,212.656 205.420 C 213.029 205.418,213.333 205.323,213.333 205.208 C 213.333 205.094,213.615 205.000,213.958 205.000 C 214.588 205.000,214.806 204.708,214.323 204.513 C 214.060 204.407,214.308 204.350,215.260 204.297 C 215.522 204.282,215.729 204.136,215.729 203.965 C 215.729 203.786,216.075 203.562,216.563 203.426 C 217.045 203.290,217.424 203.046,217.463 202.846 C 217.507 202.620,217.737 202.500,218.128 202.500 C 218.814 202.500,219.143 202.162,218.596 202.019 C 218.279 201.936,219.415 201.783,219.844 201.850 C 219.930 201.864,220.000 201.771,220.000 201.644 C 220.000 201.518,219.859 201.468,219.688 201.534 C 219.507 201.603,219.375 201.538,219.375 201.379 C 219.375 201.219,219.629 201.098,219.987 201.088 C 220.324 201.078,220.769 200.979,220.977 200.868 C 221.358 200.664,221.501 200.625,221.868 200.625 C 221.979 200.625,222.016 200.484,221.950 200.313 C 221.860 200.077,221.987 200.000,222.465 200.000 C 223.134 200.000,223.519 199.693,223.074 199.513 C 222.930 199.455,223.023 199.389,223.281 199.365 C 223.829 199.316,223.850 199.310,224.750 198.965 C 225.128 198.820,225.391 198.655,225.333 198.597 C 225.104 198.368,225.841 197.917,226.443 197.917 C 226.795 197.917,227.083 197.823,227.083 197.708 C 227.083 197.594,227.429 197.500,227.852 197.500 C 228.573 197.500,228.596 197.481,228.217 197.194 C 227.830 196.901,227.837 196.888,228.385 196.882 C 228.701 196.878,228.958 196.777,228.958 196.658 C 228.958 196.538,229.076 196.455,229.219 196.474 C 230.023 196.578,230.417 196.436,230.417 196.042 C 230.417 195.719,230.556 195.625,231.035 195.625 C 231.499 195.625,231.624 195.547,231.534 195.313 C 231.450 195.096,231.548 195.000,231.853 195.000 C 232.094 195.000,232.292 194.906,232.292 194.792 C 232.292 194.677,232.362 194.594,232.448 194.608 C 232.945 194.686,233.549 194.546,233.802 194.293 C 233.961 194.134,234.273 193.968,234.494 193.926 C 234.715 193.883,234.896 193.709,234.896 193.539 C 234.896 193.369,235.107 193.199,235.365 193.163 C 235.922 193.083,235.983 192.778,235.469 192.644 C 235.268 192.591,235.497 192.537,235.977 192.524 C 236.458 192.511,236.908 192.406,236.979 192.292 C 237.050 192.177,237.331 192.083,237.604 192.083 C 238.211 192.083,238.478 191.735,237.971 191.602 C 237.769 191.550,237.966 191.496,238.408 191.483 C 239.010 191.464,239.183 191.384,239.098 191.163 C 238.994 190.892,239.389 190.576,239.896 190.523 C 240.010 190.511,240.303 190.392,240.546 190.258 C 240.788 190.124,241.046 190.074,241.118 190.146 C 241.191 190.219,241.250 190.122,241.250 189.931 C 241.250 189.731,241.427 189.572,241.667 189.557 C 242.344 189.515,242.457 189.487,242.622 189.323 C 242.707 189.237,242.569 189.167,242.314 189.167 C 242.059 189.167,241.906 189.077,241.974 188.967 C 242.041 188.858,242.235 188.821,242.405 188.887 C 242.575 188.952,242.862 188.882,243.044 188.731 C 243.225 188.580,243.574 188.426,243.817 188.389 C 244.061 188.352,244.338 188.184,244.432 188.015 C 244.527 187.846,244.834 187.708,245.115 187.708 C 245.651 187.708,245.809 187.401,245.365 187.221 C 245.221 187.164,245.409 187.097,245.781 187.074 C 246.744 187.013,246.822 186.997,246.997 186.823 C 247.082 186.737,246.950 186.667,246.701 186.667 C 246.453 186.667,246.250 186.577,246.250 186.468 C 246.250 186.359,246.529 186.305,246.870 186.348 C 247.258 186.397,247.472 186.338,247.443 186.189 C 247.414 186.042,247.644 185.973,248.045 186.009 C 248.553 186.055,248.719 185.974,248.807 185.638 C 248.886 185.337,249.089 185.208,249.485 185.208 C 249.965 185.208,250.011 185.161,249.792 184.896 C 249.573 184.632,249.615 184.583,250.062 184.583 C 250.767 184.583,251.275 184.375,251.132 184.145 C 251.069 184.042,251.155 183.958,251.325 183.958 C 251.494 183.958,251.663 183.865,251.701 183.752 C 251.740 183.638,252.099 183.516,252.500 183.481 C 253.053 183.433,253.214 183.332,253.168 183.063 C 253.124 182.808,253.252 182.708,253.624 182.708 C 254.199 182.708,254.524 182.386,254.116 182.222 C 253.972 182.164,254.164 182.109,254.544 182.100 C 254.947 182.090,255.179 181.997,255.104 181.875 C 255.031 181.757,255.206 181.667,255.509 181.667 C 255.884 181.667,256.042 181.555,256.042 181.290 C 256.042 181.005,256.187 180.924,256.639 180.955 C 256.967 180.978,257.366 180.914,257.524 180.814 C 257.732 180.682,257.740 180.630,257.552 180.628 C 257.409 180.626,257.292 180.531,257.292 180.417 C 257.292 180.302,257.573 180.208,257.917 180.208 C 258.260 180.208,258.542 180.115,258.542 180.000 C 258.542 179.885,258.724 179.792,258.946 179.792 C 259.422 179.792,259.701 179.449,259.327 179.324 C 259.184 179.277,259.435 179.224,259.883 179.207 C 260.766 179.174,261.481 178.750,260.654 178.750 C 260.396 178.750,260.232 178.672,260.291 178.576 C 260.350 178.481,260.666 178.442,260.992 178.490 C 261.368 178.545,261.687 178.456,261.860 178.247 C 262.011 178.065,262.253 177.917,262.399 177.917 C 262.545 177.917,262.718 177.776,262.784 177.604 C 262.850 177.432,263.141 177.292,263.431 177.292 C 263.981 177.292,264.148 176.986,263.698 176.805 C 263.555 176.747,263.789 176.692,264.219 176.683 C 264.979 176.667,265.264 176.391,264.740 176.180 C 264.596 176.122,264.714 176.064,265.000 176.051 C 265.286 176.039,265.699 175.894,265.916 175.729 C 266.134 175.565,266.391 175.479,266.489 175.540 C 266.587 175.600,266.673 175.433,266.681 175.169 C 266.695 174.733,266.711 174.726,266.853 175.089 C 266.994 175.448,267.025 175.454,267.145 175.141 C 267.223 174.936,267.506 174.792,267.828 174.792 C 268.231 174.792,268.346 174.708,268.258 174.479 C 268.166 174.240,268.301 174.167,268.832 174.167 C 269.328 174.167,269.636 174.019,269.916 173.646 C 270.168 173.310,270.512 173.125,270.883 173.125 C 271.307 173.125,271.458 173.022,271.458 172.734 C 271.458 172.463,271.665 172.299,272.135 172.196 C 272.734 172.065,272.764 172.028,272.396 171.872 C 272.049 171.725,272.092 171.694,272.656 171.681 C 273.106 171.672,273.333 171.564,273.333 171.361 C 273.333 171.174,273.455 171.102,273.646 171.175 C 273.845 171.251,273.958 171.171,273.958 170.953 C 273.958 170.766,274.099 170.558,274.271 170.492 C 274.443 170.426,274.583 170.241,274.583 170.082 C 274.583 169.922,274.724 169.792,274.896 169.792 C 275.068 169.792,275.208 169.654,275.208 169.486 C 275.208 169.299,275.330 169.227,275.521 169.300 C 275.719 169.376,275.833 169.297,275.833 169.085 C 275.833 168.901,275.956 168.750,276.107 168.750 C 276.257 168.750,276.509 168.422,276.667 168.021 C 276.847 167.561,277.092 167.292,277.331 167.292 C 277.595 167.292,277.708 167.135,277.708 166.771 C 277.708 166.447,277.826 166.250,278.021 166.250 C 278.194 166.250,278.333 166.065,278.333 165.833 C 278.333 165.604,278.459 165.417,278.612 165.417 C 278.766 165.417,279.017 165.036,279.171 164.571 C 279.324 164.105,279.621 163.633,279.829 163.522 C 280.060 163.398,280.208 163.086,280.208 162.723 C 280.208 162.386,280.344 162.076,280.521 162.008 C 280.702 161.939,280.833 161.627,280.833 161.269 C 280.833 160.928,280.927 160.592,281.042 160.521 C 281.156 160.450,281.250 160.013,281.250 159.549 C 281.250 158.894,281.318 158.732,281.555 158.822 C 282.157 159.054,282.188 156.920,282.188 114.063 C 282.188 71.540,282.161 69.583,281.580 69.583 C 281.408 69.583,281.248 69.271,281.180 68.802 C 280.945 67.198,280.779 66.667,280.510 66.667 C 280.352 66.667,280.207 66.379,280.169 65.990 C 280.133 65.610,279.996 65.333,279.859 65.359 C 279.724 65.385,279.553 65.129,279.479 64.789 C 279.404 64.449,279.256 64.118,279.151 64.053 C 279.045 63.987,278.958 63.752,278.958 63.529 C 278.958 63.307,278.818 63.125,278.646 63.125 C 278.472 63.125,278.333 62.940,278.333 62.708 C 278.333 62.477,278.194 62.292,278.021 62.292 C 277.847 62.292,277.708 62.106,277.708 61.875 C 277.708 61.597,277.569 61.458,277.292 61.458 C 277.025 61.458,276.875 61.319,276.875 61.072 C 276.875 60.860,276.641 60.433,276.354 60.124 C 276.068 59.815,275.833 59.496,275.833 59.415 C 275.833 59.334,275.552 59.144,275.208 58.992 C 274.865 58.840,274.583 58.592,274.583 58.442 C 274.583 58.292,274.443 58.116,274.271 58.050 C 274.099 57.984,273.958 57.776,273.958 57.588 C 273.958 57.367,273.846 57.290,273.638 57.370 C 273.456 57.440,273.266 57.360,273.199 57.184 C 273.134 57.014,272.903 56.875,272.686 56.875 C 272.469 56.875,272.292 56.734,272.292 56.563 C 272.292 56.391,272.115 56.250,271.899 56.250 C 271.676 56.250,271.458 56.062,271.392 55.812 C 271.330 55.572,271.192 55.428,271.086 55.493 C 270.980 55.559,270.582 55.334,270.201 54.994 C 269.719 54.563,269.292 54.375,268.794 54.375 C 268.245 54.375,268.108 54.303,268.200 54.063 C 268.287 53.836,268.177 53.750,267.797 53.750 C 267.414 53.750,267.290 53.652,267.335 53.385 C 267.379 53.123,267.235 53.002,266.823 52.955 C 266.508 52.919,266.250 52.801,266.250 52.694 C 266.250 52.588,266.096 52.500,265.908 52.500 C 265.720 52.500,265.442 52.336,265.290 52.135 C 265.026 51.788,265.013 51.788,265.007 52.135 C 265.003 52.336,264.909 52.500,264.798 52.500 C 264.687 52.500,264.650 52.359,264.716 52.188 C 264.805 51.957,264.681 51.871,264.241 51.859 C 263.914 51.850,263.763 51.795,263.906 51.737 C 264.385 51.544,264.174 51.277,263.490 51.211 C 263.117 51.175,262.844 51.060,262.882 50.954 C 262.977 50.691,261.435 49.961,261.013 50.070 C 260.825 50.118,260.544 50.076,260.388 49.978 C 260.162 49.835,260.160 49.797,260.377 49.795 C 260.960 49.788,260.354 49.374,259.727 49.351 C 259.362 49.338,259.227 49.284,259.427 49.231 C 259.956 49.093,259.874 48.750,259.313 48.750 C 259.049 48.750,258.737 48.654,258.620 48.537 C 258.503 48.419,258.040 48.310,257.591 48.293 C 257.143 48.276,256.892 48.223,257.034 48.176 C 257.307 48.085,257.401 47.483,257.135 47.525 C 256.561 47.615,256.042 47.455,256.042 47.188 C 256.042 46.916,255.661 46.771,255.156 46.850 C 255.070 46.864,255.000 46.781,255.000 46.667 C 255.000 46.552,254.869 46.458,254.710 46.458 C 254.550 46.458,254.364 46.313,254.296 46.136 C 254.228 45.959,254.054 45.829,253.909 45.848 C 253.324 45.925,253.125 45.813,253.125 45.408 C 253.125 45.173,253.008 44.997,252.865 45.016 C 252.081 45.117,251.358 44.969,251.771 44.792 C 252.168 44.621,252.166 44.612,251.719 44.598 C 251.461 44.590,251.250 44.484,251.250 44.363 C 251.250 44.241,251.156 44.200,251.042 44.271 C 250.927 44.342,250.833 44.300,250.833 44.179 C 250.833 44.058,250.435 43.952,249.948 43.945 C 249.169 43.934,249.123 43.908,249.561 43.732 C 250.220 43.469,250.052 43.341,248.993 43.299 C 248.302 43.272,248.125 43.187,248.125 42.883 C 248.125 42.672,247.984 42.500,247.813 42.500 C 247.641 42.500,247.500 42.406,247.500 42.292 C 247.500 42.177,247.263 42.083,246.973 42.083 C 246.683 42.083,246.391 41.943,246.325 41.771 C 246.259 41.599,245.958 41.451,245.655 41.442 C 245.352 41.433,245.221 41.378,245.365 41.320 C 245.796 41.146,245.658 40.833,245.150 40.833 C 244.889 40.833,244.515 40.646,244.319 40.417 C 244.123 40.188,243.774 40.000,243.544 40.000 C 243.313 40.000,243.125 39.906,243.125 39.792 C 243.125 39.677,242.820 39.577,242.448 39.569 C 241.881 39.556,241.838 39.525,242.188 39.375 C 242.417 39.277,242.534 39.178,242.448 39.155 C 242.362 39.133,242.198 39.091,242.083 39.063 C 241.969 39.034,241.570 38.988,241.198 38.960 C 240.815 38.932,240.679 38.869,240.885 38.815 C 241.721 38.596,240.135 37.865,238.826 37.865 C 238.413 37.865,238.320 37.780,238.401 37.474 C 238.481 37.167,238.384 37.080,237.949 37.067 C 237.645 37.058,237.514 37.003,237.658 36.945 C 238.063 36.782,237.743 36.458,237.175 36.458 C 236.896 36.458,236.667 36.365,236.667 36.250 C 236.667 36.135,236.531 36.042,236.365 36.042 C 236.198 36.042,235.959 35.878,235.832 35.677 C 235.668 35.418,235.569 35.387,235.492 35.571 C 235.369 35.864,234.688 35.305,234.688 34.911 C 234.688 34.788,234.477 34.676,234.219 34.661 C 233.384 34.615,233.307 34.587,233.438 34.374 C 233.567 34.165,233.246 33.970,232.626 33.879 C 232.449 33.853,232.239 33.766,232.159 33.687 C 232.079 33.607,231.738 33.542,231.401 33.542 C 230.952 33.542,230.820 33.461,230.905 33.240 C 230.974 33.058,230.861 32.887,230.619 32.810 C 230.398 32.740,230.238 32.571,230.265 32.435 C 230.292 32.294,230.019 32.159,229.631 32.122 C 229.257 32.086,229.005 31.969,229.071 31.862 C 229.137 31.754,228.951 31.667,228.658 31.667 C 228.323 31.667,228.125 31.551,228.125 31.354 C 228.125 31.128,227.894 31.042,227.292 31.042 C 226.714 31.042,226.458 30.952,226.458 30.749 C 226.458 30.557,226.620 30.487,226.927 30.546 C 227.348 30.628,227.343 30.614,226.878 30.411 C 226.593 30.287,226.198 30.228,226.000 30.280 C 225.801 30.332,225.647 30.313,225.657 30.239 C 225.715 29.789,225.575 29.583,225.208 29.583 C 224.979 29.583,224.792 29.490,224.792 29.375 C 224.792 29.260,224.487 29.156,224.115 29.142 C 223.742 29.129,223.603 29.075,223.805 29.023 C 224.439 28.857,223.971 28.542,223.090 28.542 C 222.419 28.542,222.272 28.477,222.370 28.222 C 222.503 27.874,221.712 27.463,220.889 27.453 C 220.634 27.450,220.316 27.317,220.183 27.157 C 219.987 26.921,220.016 26.890,220.335 26.994 C 220.660 27.100,220.674 27.083,220.417 26.898 C 220.245 26.774,219.943 26.672,219.746 26.670 C 219.514 26.668,219.430 26.557,219.508 26.354 C 219.618 26.067,218.951 25.895,218.246 26.029 C 218.141 26.049,218.176 25.919,218.324 25.741 C 218.551 25.467,218.531 25.417,218.192 25.417 C 217.972 25.417,217.701 25.326,217.589 25.214 C 217.419 25.044,216.835 24.872,216.204 24.807 C 216.122 24.799,216.110 24.647,216.178 24.471 C 216.246 24.294,216.219 24.165,216.119 24.183 C 215.292 24.334,214.753 24.152,215.027 23.814 C 215.184 23.620,215.212 23.522,215.089 23.595 C 214.966 23.669,214.604 23.593,214.284 23.427 C 213.964 23.261,213.432 23.125,213.101 23.125 C 212.771 23.125,212.500 23.031,212.500 22.917 C 212.500 22.802,212.711 22.707,212.969 22.705 C 213.348 22.703,213.378 22.663,213.125 22.500 C 212.953 22.389,212.602 22.297,212.344 22.295 C 212.067 22.293,211.875 22.163,211.875 21.979 C 211.875 21.758,211.648 21.666,211.094 21.663 C 210.513 21.661,210.393 21.609,210.625 21.458 C 210.913 21.272,210.362 21.127,209.740 21.225 C 209.654 21.239,209.607 21.135,209.635 20.995 C 209.664 20.854,209.474 20.707,209.213 20.667 C 208.908 20.620,208.759 20.471,208.796 20.249 C 208.836 20.014,208.697 19.894,208.363 19.875 C 208.092 19.859,207.811 19.762,207.738 19.658 C 207.480 19.294,206.468 18.750,206.049 18.750 C 205.811 18.750,205.625 18.613,205.625 18.438 C 205.625 18.243,205.428 18.125,205.104 18.125 C 204.776 18.125,204.583 18.007,204.583 17.807 C 204.583 17.621,204.325 17.438,203.958 17.365 C 203.615 17.296,203.333 17.158,203.333 17.057 C 203.333 16.957,203.203 16.875,203.043 16.875 C 202.884 16.875,202.699 16.734,202.633 16.563 C 202.567 16.391,202.276 16.250,201.986 16.250 C 201.656 16.250,201.458 16.133,201.458 15.938 C 201.458 15.751,201.267 15.625,200.984 15.625 C 200.723 15.625,200.349 15.438,200.153 15.208 C 199.942 14.963,199.538 14.792,199.169 14.792 C 198.824 14.792,198.542 14.698,198.542 14.583 C 198.542 14.469,198.167 14.375,197.708 14.375 C 197.153 14.375,196.892 14.288,196.927 14.115 C 196.963 13.935,196.592 13.835,195.729 13.791 C 195.042 13.756,194.390 13.639,194.281 13.530 C 194.017 13.268,186.042 13.269,186.042 13.532 M193.112 23.672 C 194.224 23.947,197.173 25.308,198.922 26.354 C 199.420 26.652,201.433 27.804,202.292 28.283 C 202.693 28.507,204.896 29.749,207.188 31.044 C 209.479 32.339,211.771 33.632,212.281 33.917 C 212.790 34.201,213.634 34.684,214.156 34.990 C 214.677 35.296,215.245 35.610,215.417 35.688 C 215.589 35.767,215.870 35.923,216.042 36.035 C 216.546 36.366,219.612 38.125,219.683 38.125 C 219.719 38.125,221.657 39.215,223.989 40.547 C 226.321 41.880,228.698 43.229,229.271 43.547 C 233.042 45.634,244.771 52.283,245.810 52.922 C 246.364 53.263,246.875 53.542,246.946 53.542 C 247.018 53.542,247.689 53.917,248.438 54.375 C 249.186 54.833,249.842 55.208,249.894 55.208 C 249.945 55.208,250.702 55.630,251.574 56.146 C 252.446 56.661,253.188 57.083,253.222 57.083 C 253.257 57.083,254.999 58.068,257.093 59.271 C 259.188 60.474,260.929 61.458,260.964 61.458 C 260.999 61.458,261.757 61.898,262.649 62.435 C 267.454 65.329,270.028 68.019,271.583 71.771 L 272.188 73.229 272.317 89.896 C 272.540 118.516,272.519 151.635,272.278 153.125 C 271.590 157.369,268.931 161.767,265.732 163.952 C 264.966 164.475,260.444 167.083,260.303 167.083 C 260.270 167.083,259.529 167.505,258.657 168.021 C 257.785 168.536,257.029 168.958,256.977 168.958 C 256.925 168.958,256.295 169.317,255.577 169.755 C 254.858 170.192,253.661 170.884,252.917 171.292 C 249.752 173.025,248.988 173.455,245.260 175.602 C 242.602 177.133,241.898 177.500,241.622 177.500 C 241.469 177.500,240.596 177.931,239.682 178.458 C 238.769 178.984,237.693 179.600,237.292 179.826 C 236.891 180.051,236.237 180.427,235.840 180.660 C 234.233 181.603,228.092 185.149,226.042 186.317 C 224.839 187.003,223.573 187.731,223.229 187.937 C 222.885 188.142,221.948 188.678,221.146 189.129 C 220.344 189.579,218.609 190.579,217.292 191.349 C 215.974 192.120,213.396 193.597,211.563 194.632 C 209.729 195.666,207.975 196.688,207.665 196.902 C 207.354 197.116,207.051 197.292,206.991 197.292 C 206.931 197.292,206.270 197.667,205.521 198.125 C 204.772 198.583,204.117 198.958,204.065 198.958 C 204.013 198.958,203.257 199.380,202.385 199.896 C 201.512 200.411,200.758 200.833,200.708 200.833 C 200.658 200.833,200.267 201.052,199.840 201.319 C 198.820 201.956,196.402 203.285,195.152 203.895 C 190.956 205.943,186.284 205.655,181.771 203.071 C 181.313 202.808,180.282 202.221,179.480 201.765 C 178.679 201.310,177.835 200.824,177.605 200.685 C 177.376 200.547,177.047 200.364,176.875 200.279 C 176.600 200.144,175.910 199.755,173.438 198.342 C 173.094 198.145,172.250 197.673,171.563 197.291 C 170.875 196.909,169.625 196.191,168.785 195.694 C 167.945 195.198,167.218 194.792,167.170 194.792 C 167.122 194.792,166.122 194.241,164.948 193.568 C 160.767 191.173,153.017 186.774,150.417 185.320 C 144.859 182.212,141.179 180.135,140.625 179.793 C 140.453 179.687,139.547 179.173,138.611 178.652 C 137.674 178.131,136.878 177.631,136.840 177.541 C 136.768 177.370,134.197 175.858,131.875 174.621 C 131.130 174.225,130.005 173.600,129.375 173.232 C 128.745 172.865,127.198 171.981,125.938 171.269 C 124.677 170.557,123.505 169.889,123.333 169.785 C 122.400 169.219,118.807 167.146,118.541 167.019 C 118.369 166.937,117.977 166.707,117.669 166.508 C 117.361 166.309,116.478 165.753,115.706 165.273 C 111.123 162.423,108.378 158.425,107.724 153.646 C 107.598 152.720,107.590 138.109,107.705 113.646 C 107.906 70.619,107.781 73.832,109.384 70.569 C 111.381 66.505,112.887 65.293,123.021 59.588 C 124.574 58.714,127.352 57.102,127.708 56.869 C 127.880 56.756,128.161 56.600,128.333 56.521 C 128.505 56.443,129.705 55.740,130.999 54.960 C 132.293 54.180,133.405 53.542,133.470 53.542 C 133.535 53.542,134.351 53.083,135.284 52.522 C 136.216 51.961,137.354 51.295,137.813 51.041 C 138.685 50.559,142.496 48.346,146.305 46.109 C 147.538 45.384,148.594 44.792,148.653 44.792 C 148.711 44.792,149.108 44.571,149.535 44.302 C 149.963 44.032,151.906 42.893,153.854 41.771 C 155.802 40.649,158.615 39.028,160.104 38.169 C 161.594 37.310,163.141 36.422,163.542 36.196 C 163.943 35.970,165.047 35.327,165.996 34.767 C 166.945 34.208,167.761 33.750,167.809 33.750 C 167.858 33.750,168.816 33.202,169.938 32.531 C 172.186 31.189,179.118 27.239,181.250 26.086 C 181.995 25.683,183.120 25.073,183.750 24.731 C 186.294 23.351,190.082 22.922,193.112 23.672 " stroke="none" fill="#b35c1c" fill-rule="evenodd"></path><path id="path3" d="M140.975 89.323 C 139.937 90.326,138.700 91.521,138.227 91.979 C 137.754 92.438,135.826 94.266,133.944 96.041 C 130.728 99.075,127.269 102.373,125.315 104.271 C 124.842 104.729,122.921 106.557,121.044 108.333 C 114.795 114.247,113.958 115.068,113.958 115.284 C 113.958 115.554,120.536 121.931,125.183 126.166 C 125.800 126.728,126.839 127.703,127.494 128.333 C 128.148 128.964,129.332 130.089,130.125 130.833 C 130.918 131.578,132.465 133.031,133.563 134.063 C 134.661 135.094,137.227 137.531,139.265 139.479 C 143.518 143.543,143.571 143.576,144.463 142.756 C 144.815 142.431,145.573 141.798,146.146 141.350 C 146.719 140.902,147.234 140.485,147.292 140.424 C 147.349 140.363,148.005 139.850,148.750 139.285 C 149.495 138.719,150.255 138.110,150.439 137.930 C 150.623 137.751,151.346 137.182,152.045 136.667 C 152.982 135.976,153.319 135.596,153.325 135.225 C 153.334 134.662,153.525 134.853,145.653 127.524 C 145.236 127.137,143.677 125.675,142.188 124.275 C 140.698 122.875,139.010 121.301,138.438 120.776 C 137.865 120.252,136.328 118.805,135.024 117.560 L 132.651 115.298 133.982 114.031 C 134.714 113.334,135.558 112.541,135.857 112.267 C 136.504 111.678,142.130 106.338,145.818 102.813 C 147.256 101.438,149.230 99.563,150.204 98.646 C 153.933 95.136,153.913 95.679,150.417 92.903 C 147.731 90.770,146.735 89.973,145.618 89.063 C 143.158 87.057,143.331 87.048,140.975 89.323 M234.889 88.006 C 234.549 88.285,233.661 89.013,232.917 89.624 C 232.172 90.235,231.141 91.060,230.625 91.456 C 230.109 91.852,229.641 92.228,229.583 92.292 C 229.526 92.355,229.057 92.727,228.542 93.119 C 226.698 94.522,226.042 95.142,226.042 95.482 C 226.042 95.800,226.281 96.061,228.369 98.021 C 233.820 103.137,235.323 104.548,235.910 105.104 C 236.274 105.448,237.877 106.948,239.472 108.438 C 241.068 109.927,242.974 111.708,243.709 112.396 C 244.443 113.083,245.417 113.990,245.872 114.410 C 246.828 115.293,246.786 115.532,245.477 116.671 C 244.727 117.322,239.482 122.274,237.637 124.073 C 237.160 124.537,235.036 126.552,232.917 128.551 C 225.059 135.958,225.611 135.093,227.743 136.667 C 228.442 137.182,229.133 137.719,229.279 137.860 C 229.425 138.001,230.139 138.585,230.866 139.157 C 231.593 139.730,232.281 140.273,232.396 140.363 C 233.412 141.163,234.755 142.272,235.174 142.656 C 235.856 143.281,236.525 143.247,237.246 142.552 C 238.204 141.628,245.182 134.948,246.771 133.435 C 247.573 132.671,248.983 131.328,249.904 130.450 C 250.825 129.572,253.355 127.167,255.525 125.104 C 257.695 123.042,260.390 120.468,261.513 119.386 C 262.636 118.303,263.974 117.048,264.486 116.595 C 265.580 115.628,265.677 115.027,264.844 114.372 C 264.530 114.124,262.819 112.536,261.042 110.842 C 256.953 106.942,256.064 106.105,254.728 104.890 C 254.133 104.349,252.943 103.237,252.083 102.418 C 248.066 98.593,245.909 96.550,243.037 93.854 C 241.329 92.250,239.126 90.167,238.143 89.225 C 236.200 87.364,235.837 87.229,234.889 88.006 M148.237 91.469 C 150.811 93.538,152.917 95.351,152.917 95.499 C 152.917 95.647,151.346 97.251,149.427 99.065 C 147.508 100.878,144.906 103.354,143.645 104.566 C 141.022 107.088,135.228 112.573,133.568 114.105 C 132.335 115.244,132.319 115.541,133.442 116.425 C 133.733 116.654,135.398 118.191,137.142 119.842 C 138.886 121.492,142.563 124.939,145.313 127.502 C 152.367 134.077,153.126 134.825,153.120 135.194 C 153.117 135.374,152.110 136.318,150.881 137.292 C 149.652 138.266,148.459 139.216,148.230 139.404 C 148.000 139.592,147.016 140.380,146.042 141.156 C 145.068 141.932,144.113 142.701,143.920 142.866 C 143.528 143.200,143.746 143.384,137.292 137.282 C 135.516 135.604,133.781 133.973,133.438 133.659 C 133.094 133.344,132.063 132.377,131.146 131.509 C 126.689 127.289,125.797 126.443,123.958 124.690 C 122.870 123.653,120.675 121.587,119.081 120.100 C 113.933 115.297,113.875 115.228,114.584 114.731 C 114.813 114.571,116.103 113.378,117.449 112.080 C 120.666 108.980,123.401 106.365,125.835 104.062 C 126.925 103.031,129.690 100.401,131.981 98.217 C 141.758 88.896,143.034 87.710,143.289 87.709 C 143.437 87.709,145.663 89.401,148.237 91.469 M236.634 88.144 C 236.938 88.383,238.177 89.531,239.387 90.696 C 240.596 91.860,243.030 94.172,244.796 95.833 C 246.561 97.495,248.751 99.557,249.663 100.417 C 250.574 101.276,251.571 102.214,251.878 102.500 C 252.442 103.026,254.089 104.583,257.715 108.021 C 258.802 109.052,260.933 111.061,262.450 112.485 C 265.713 115.549,265.626 115.153,263.490 117.196 C 262.544 118.100,260.690 119.874,259.368 121.139 C 258.047 122.403,256.074 124.281,254.985 125.313 C 252.222 127.928,242.259 137.428,238.110 141.405 C 237.242 142.236,236.394 142.917,236.225 142.917 C 235.975 142.917,233.619 141.147,231.563 139.414 C 231.333 139.221,230.139 138.266,228.907 137.292 C 226.133 135.097,226.133 135.235,228.932 132.614 C 230.149 131.474,232.036 129.690,233.125 128.650 C 234.214 127.609,236.042 125.870,237.189 124.785 C 244.433 117.931,246.875 115.542,246.875 115.313 C 246.875 115.066,245.721 113.946,238.740 107.421 C 237.989 106.720,235.977 104.833,234.268 103.229 C 232.559 101.625,230.455 99.656,229.592 98.854 C 225.569 95.114,225.713 95.689,228.281 93.632 C 230.410 91.928,232.408 90.320,234.435 88.683 C 235.813 87.570,235.882 87.553,236.634 88.144 " stroke="none" fill="#eba87a" fill-rule="evenodd"></path><path id="path4" d="M139.583 90.978 C 137.693 92.776,134.272 96.033,131.981 98.217 C 129.690 100.401,126.925 103.031,125.835 104.062 C 123.401 106.365,120.666 108.980,117.449 112.080 C 116.103 113.378,114.813 114.571,114.584 114.731 C 113.875 115.228,113.933 115.297,119.081 120.100 C 120.675 121.587,122.870 123.653,123.958 124.690 C 125.797 126.443,126.689 127.289,131.146 131.509 C 132.063 132.377,133.094 133.344,133.438 133.659 C 133.781 133.973,135.516 135.604,137.292 137.282 C 143.746 143.384,143.528 143.200,143.920 142.866 C 144.113 142.701,145.068 141.932,146.042 141.156 C 147.016 140.380,148.000 139.592,148.230 139.404 C 148.459 139.216,149.652 138.266,150.881 137.292 C 152.110 136.318,153.117 135.374,153.120 135.194 C 153.126 134.825,152.367 134.077,145.313 127.502 C 142.563 124.939,138.886 121.492,137.142 119.842 C 135.398 118.191,133.733 116.654,133.442 116.425 C 132.319 115.541,132.335 115.244,133.568 114.105 C 135.228 112.573,141.022 107.088,143.645 104.566 C 144.906 103.354,147.508 100.878,149.427 99.065 C 151.346 97.251,152.917 95.647,152.917 95.499 C 152.917 95.181,143.680 87.708,143.289 87.709 C 143.142 87.710,141.474 89.181,139.583 90.978 M234.435 88.683 C 232.408 90.320,230.410 91.928,228.281 93.632 C 225.713 95.689,225.569 95.114,229.592 98.854 C 230.455 99.656,232.559 101.625,234.268 103.229 C 235.977 104.833,237.989 106.720,238.740 107.421 C 245.721 113.946,246.875 115.066,246.875 115.313 C 246.875 115.542,244.433 117.931,237.189 124.785 C 236.042 125.870,234.214 127.609,233.125 128.650 C 232.036 129.690,230.149 131.474,228.932 132.614 C 226.133 135.235,226.133 135.097,228.907 137.292 C 230.139 138.266,231.333 139.221,231.563 139.414 C 233.619 141.147,235.975 142.917,236.225 142.917 C 236.394 142.917,237.242 142.236,238.110 141.405 C 242.259 137.428,252.222 127.928,254.985 125.313 C 256.074 124.281,258.047 122.403,259.368 121.139 C 260.690 119.874,262.544 118.100,263.490 117.196 C 265.626 115.153,265.713 115.549,262.450 112.485 C 260.933 111.061,258.802 109.052,257.715 108.021 C 254.089 104.583,252.442 103.026,251.878 102.500 C 251.571 102.214,250.574 101.276,249.663 100.417 C 248.751 99.557,246.561 97.495,244.796 95.833 C 243.030 94.172,240.596 91.860,239.387 90.696 C 235.770 87.215,236.091 87.345,234.435 88.683 M143.979 88.359 C 144.254 88.602,145.135 89.321,145.938 89.958 C 152.834 95.428,153.174 95.755,152.314 96.076 C 152.212 96.115,150.688 97.515,148.929 99.189 C 147.169 100.863,145.245 102.691,144.653 103.252 C 144.061 103.812,142.889 104.922,142.049 105.718 C 141.208 106.514,138.801 108.810,136.700 110.822 C 134.599 112.833,132.747 114.554,132.585 114.646 C 132.424 114.737,132.292 115.002,132.292 115.235 C 132.292 115.660,132.441 115.828,134.697 117.924 C 135.379 118.559,137.531 120.571,139.479 122.395 C 141.427 124.220,143.528 126.185,144.147 126.762 C 144.767 127.340,146.124 128.609,147.164 129.583 C 148.204 130.557,149.812 132.057,150.738 132.917 C 153.062 135.073,153.116 135.168,152.370 135.783 C 151.745 136.299,149.410 138.149,147.251 139.840 C 146.558 140.382,145.489 141.255,144.875 141.779 C 143.612 142.858,143.681 142.868,142.051 141.376 C 140.360 139.828,131.546 131.526,130.415 130.417 C 130.356 130.359,129.606 129.656,128.746 128.854 C 127.357 127.557,123.093 123.532,118.237 118.935 C 117.316 118.063,116.207 117.042,115.773 116.667 C 114.378 115.461,114.372 115.289,115.679 114.081 C 116.309 113.498,118.448 111.474,120.431 109.583 C 122.414 107.693,124.975 105.255,126.121 104.167 C 127.267 103.078,128.833 101.578,129.603 100.833 C 130.372 100.089,131.646 98.870,132.434 98.125 C 137.479 93.356,141.645 89.371,142.281 88.705 C 143.145 87.801,143.309 87.767,143.979 88.359 M237.990 89.740 C 239.040 90.742,241.490 93.063,243.433 94.896 C 245.376 96.729,247.812 99.030,248.847 100.009 C 251.049 102.091,253.674 104.554,254.166 105.000 C 254.356 105.172,255.395 106.151,256.474 107.175 C 258.520 109.116,261.214 111.666,263.610 113.930 C 265.027 115.269,265.096 115.470,264.337 116.045 C 264.259 116.105,263.176 117.136,261.932 118.337 C 260.687 119.538,258.083 122.021,256.145 123.854 C 252.668 127.143,249.928 129.755,245.632 133.876 C 244.425 135.033,242.547 136.825,241.458 137.858 C 235.719 143.304,236.366 142.969,234.510 141.456 C 233.805 140.882,233.135 140.341,233.021 140.254 C 230.789 138.561,226.875 135.289,226.875 135.115 C 226.875 134.988,227.180 134.620,227.552 134.296 C 227.924 133.973,229.358 132.616,230.737 131.281 C 232.116 129.946,234.692 127.495,236.462 125.833 C 239.613 122.875,242.403 120.220,245.663 117.074 C 247.582 115.222,247.565 115.300,246.302 114.158 C 245.148 113.113,242.636 110.764,240.417 108.652 C 239.557 107.834,237.354 105.770,235.521 104.064 C 233.688 102.359,231.484 100.285,230.625 99.456 C 229.766 98.627,228.523 97.461,227.865 96.865 C 226.459 95.593,226.428 95.443,227.409 94.657 C 227.817 94.330,228.262 93.968,228.398 93.852 C 228.535 93.736,229.771 92.755,231.146 91.671 C 232.521 90.587,234.113 89.299,234.684 88.809 C 236.000 87.678,235.758 87.610,237.990 89.740 " stroke="none" fill="#ecb48a" fill-rule="evenodd"></path></g></svg>